<svg xmlns="http://www.w3.org/2000/svg" viewBox="0 0 1115.06 312.9"><defs><style>.cls-1{fill:#231f20;}</style></defs><g id="Layer_1_copy_4" data-name="Layer 1 copy 4"><path class="cls-1" d="M124.56,8c-40,0-114,90.06-114,176.46s51,136.44,114,136.44,114-50,114-136.44S164.56,8,124.56,8Zm-.5,300.46c-56.61,0-102.5-46-102.5-125.46S88.09,20.73,124.06,20.73,226.56,103.54,226.56,183,180.67,308.46,124.06,308.46Z" transform="translate(-10.56 -8)"/></g><g id="Layer_5_copy" data-name="Layer 5 copy"><polygon class="cls-1" points="129.79 162.95 98.47 182.01 81.03 153.35 55.97 168.59 73.41 197.25 40.95 217 53.51 237.66 85.98 217.91 114.72 265.15 139.78 249.91 111.04 202.66 142.36 183.6 129.79 162.95"/><circle class="cls-1" cx="158.95" cy="117.39" r="24.02"/><circle class="cls-1" cx="118.27" cy="70" r="26.16" transform="translate(-23.21 20.19) rotate(-12.91)"/></g><g id="Layer_4_copy_2" data-name="Layer 4 copy 2"><path class="cls-1" d="M288.88,18.15h50v52.6l52.33-52.6h66.44l-59,52.54,61.64,86.66H398.74L364.65,100.1l-25.81,23.28v34h-50Z" transform="translate(-10.56 -8)"/><path class="cls-1" d="M460.6,18.15h47.45l17.09,77.93,25-77.93h47.28L622.49,96l17.1-77.82H686.8l-35.64,139.2h-49L573.81,69.71l-28.25,87.64h-49Z" transform="translate(-10.56 -8)"/><path class="cls-1" d="M803,134.37H746.25l-7.88,23h-51l60.76-139.2h54.5l60.75,139.2H811.05Zm-10.37-30.1-17.84-50-17.66,50Z" transform="translate(-10.56 -8)"/><path class="cls-1" d="M879.81,18.15h93.53q23.37,0,35.89,10t12.52,24.69A28.73,28.73,0,0,1,1012.82,74q-6,5.89-17.43,9.31,17.43,3.6,25.64,12.39t8.22,22.07a33.93,33.93,0,0,1-5.85,19.47,40.51,40.51,0,0,1-16,13.67q-6.28,3.13-19,4.56-16.86,1.91-22.38,1.9H879.81Zm50.4,54.6h21.73q11.68,0,16.27-3.47t4.57-10a11.17,11.17,0,0,0-4.57-9.49q-4.58-3.42-15.94-3.42H930.21Zm0,54.69h25.48q12.9,0,18.2-3.94a12.53,12.53,0,0,0,5.29-10.59,11.65,11.65,0,0,0-5.24-9.92q-5.24-3.75-18.36-3.75H930.21Z" transform="translate(-10.56 -8)"/><path class="cls-1" d="M1057.82,18.15h50.07v139.2h-50.07Z" transform="translate(-10.56 -8)"/><path class="cls-1" d="M360.36,260.23V232.1h75v57.65q-21.53,12.63-38.08,17.2T358,311.52q-28,0-45.58-8.21a61,61,0,0,1-27.32-24.45q-9.71-16.23-9.7-37.26,0-22.14,10.61-38.51t31.07-24.86q16-6.54,43-6.55,26,0,38.94,4.06a51.62,51.62,0,0,1,21.43,12.59A53.65,53.65,0,0,1,433.21,210l-46.82,7.2a22.31,22.31,0,0,0-9.8-11.72q-6.91-4-17.62-4.06-16,0-25.45,9.55T324,241.14q0,21.95,9.59,31.36t26.73,9.41a58.46,58.46,0,0,0,15.53-2A90.47,90.47,0,0,0,392.82,273V260.23Z" transform="translate(-10.56 -8)"/><path class="cls-1" d="M558.53,286.89H503.44l-7.66,22.32H446.23l59-135.22H558.2l59,135.22H566.39Zm-10.06-29.24L531.13,209,514,257.65Z" transform="translate(-10.56 -8)"/><path class="cls-1" d="M629.91,174h63.82l24.62,82.28L742.79,174h63.78V309.21H766.83V206.09L736.2,309.21h-36L669.66,206.09V309.21H629.91Z" transform="translate(-10.56 -8)"/><path class="cls-1" d="M835.23,174H965.29v28.87H883.87v21.49H959.4v27.58H883.87v26.66h83.78v30.62H835.23Z" transform="translate(-10.56 -8)"/><path class="cls-1" d="M983.13,264.48l46.18-2.5q1.5,9.69,6.1,14.76,7.5,8.22,21.43,8.21,10.4,0,16-4.19t5.62-9.74q0-5.25-5.35-9.4t-24.86-7.84q-31.92-6.18-45.53-16.42T989,211.25q0-10.41,7-19.69T1017.15,177q14.08-5.31,38.62-5.31,30.11,0,45.91,9.64t18.8,30.67l-45.75,2.31q-1.82-9.13-7.66-13.28T1051,196.86c-5.64,0-9.9,1-12.75,3.09s-4.29,4.57-4.29,7.52c0,2.16,1.18,4.09,3.54,5.81s7.71,3.45,16.28,5q31.83,5.91,45.59,12t20,15a34,34,0,0,1,6.27,20,38.78,38.78,0,0,1-8.36,24q-8.35,11-23.35,16.64t-37.82,5.68q-40.06,0-55.49-13.29A49.39,49.39,0,0,1,983.13,264.48Z" transform="translate(-10.56 -8)"/></g></svg>